<?xml version="1.0" standalone="no"?>
<!DOCTYPE svg PUBLIC "-//W3C//DTD SVG 1.1//EN" "http://www.w3.org/Graphics/SVG/1.1/DTD/svg11.dtd">
<svg xmlns="http://www.w3.org/2000/svg">
<metadata>Generated by Fontastic.me</metadata>
<defs>
<font id="g4a" horiz-adv-x="512">
<font-face font-family="g4a" units-per-em="512" ascent="480" descent="-32"/>
<missing-glyph horiz-adv-x="512" />

<glyph glyph-name="arrow" unicode="&#97;" d="M401 363c9-10 9-25 0-34-9-10-25-10-34 0l-87 87 0-390c0-13-9-23-21-24l-3 0c-13 0-24 10-24 24l0 390-87-87c-9-9-22-10-32-2l-2 2c-9 9-9 24 0 34l128 128c0 0 0 0 0 0 1 0 1 1 2 1 0 0 0 1 1 1 0 0 0 0 1 1 0 0 0 0 0 0 1 0 2 1 2 1 1 0 1 0 1 0 3 2 6 3 10 3 5 0 9-2 13-4 0 0 0 0 0 0 1-1 1-1 2-1 0-1 1-2 2-2l-2 1c1 0 1-1 2-1z"/>
<glyph glyph-name="celular" unicode="&#98;" d="M354 496l-188 0c-21 0-38-17-38-38l0-404c0-21 17-38 38-38l186 0c21 0 38 17 38 38l0 404c3 21-15 38-36 38z m-40-15l-7-23-96 0-4 23z m61-427c0-12-10-23-23-23l-186 0c-12 0-23 11-23 23l0 404c0 12 11 23 23 23l26 0 6-32c0-4 5-6 9-6l109 0c4 0 6 2 8 6l7 32 25 0c13 0 24-11 24-23l0-404z m-136 35l-53 0c-5 0-9-7-9-13 0-7 4-13 9-13l53 0c4 0 8 6 8 13 0 6-4 13-8 13z m49 0l-9 0c-4 0-8-7-8-13 0-7 4-13 8-13l9 0c4 0 9 6 9 13 0 6-5 13-9 13z"/>
<glyph glyph-name="chat" unicode="&#99;" d="M252 452c106 0 192-86 192-192 0-106-86-192-192-192-29 0-57 6-84 19-26-15-64-20-114-19-12 0-18 14-12 24 22 28 36 54 41 74-15 29-24 61-24 94 1 106 88 192 193 192z m0-30c-89 0-162-73-162-162 0-30 7-59 23-83 2-4 2-8 2-11-4-20-14-43-31-67 35 1 59 7 76 19 5 4 10 4 15 1 23-13 50-19 78-19 90 0 163 73 163 162 0 90-73 160-164 160z m60-186c8 0 16-7 16-16 0-9-7-15-16-15l-138 0c-8 0-15 6-15 15 0 9 6 16 15 16z m-39 78c7 0 15-7 15-16 0-7-6-15-15-15l-99 0c-8 0-15 6-15 15 0 8 6 16 15 16z"/>
<glyph glyph-name="close" unicode="&#100;" d="M438 488c14 13 36 13 50 0 13-14 13-36 0-50l-187-186 187-186c13-13 13-33 2-47l-2-3c-14-13-36-13-50 0l-186 187-186-187c-13-13-33-13-47-2l-3 2c-13 14-13 36 0 50l187 186-187 186c-13 13-13 33-2 47l2 3c14 13 36 13 50 0l186-187z"/>
<glyph glyph-name="diseno" unicode="&#101;" d="M441 480l39-39c29-30 29-79 0-108l-316-315c-4-5-9-7-14-7l-118 0c-12 0-21 9-21 21l0 118c0 5 2 10 7 14l315 316c29 29 78 29 108 0z m-166-118l-222-222 0-87 87 0 222 222z m87 88l-57-58 87-87 58 57c13 14 13 35 0 49l-39 39c-14 13-35 13-49 0z"/>
<glyph glyph-name="down" unicode="&#102;" d="M65 385c-12 13-32 13-45 0-12-12-12-32 0-45l213-213c13-13 33-13 46 0l213 213c12 13 12 33 0 45-13 13-33 13-45 0l-191-190z"/>
<glyph glyph-name="email" unicode="&#103;" d="M493 391c-2 26-21 42-44 42l-386 0c-26 0-44-19-44-44l0-273c0-23 18-42 44-42l388 0c24 0 42 19 42 45z m-28-270c0-9-7-14-14-14l-388 0c-9 0-16 7-16 14l0 270c0 0 0 0 0 2l188-153c2-3 12-5 21-5 7 0 14 2 21 5l2 0 189 151c0 0 0 0 0-2l0-263-3 0z m-200 142c-4-5-14-2-16 0l-179 147 375 0z"/>
<glyph glyph-name="facebook" unicode="&#104;" d="M377 507l-62 0c-70 0-116-46-116-119l0-54-64 0c-6 0-11-5-11-11l0-80c0-6 5-11 11-11l64 0 0-202c0-6 6-11 11-11l84 0c5 0 11 5 11 11l0 202 75 0c5 0 11 5 11 11l0 80c0 3 0 6-3 8-3 3-5 3-8 3l-75 0 0 43c0 22 5 35 35 35l43 0c5 0 10 6 10 11l0 73c-5 5-10 11-16 11z"/>
<glyph glyph-name="funcion" unicode="&#105;" d="M325 502c20-5 38-13 55-23 6-4 10-11 10-18l-4-53c0-1 0-2 2-2l18-18c1-2 2-2 2-2l53 4c7 0 14-4 18-10 10-17 17-36 23-55 3-7 0-14-6-19l-39-35c-1-2-1-2-1-3l0-24c0-1 0-3 1-3l39-35c6-5 7-12 6-19-5-20-13-38-23-55-4-6-11-10-18-10l-53 4c-1 0-2 0-2-2l-18-18c-2-1-2-2-2-2l4-53c0-7-4-14-10-18-17-10-35-17-55-23-7-3-14 0-19 6l-35 39c-2 1-2 1-3 1l-24 0c-1 0-3 0-3-1l-35-39c-5-6-12-7-19-6-20 5-38 13-55 23-6 4-10 11-10 18l4 53c0 1 0 2-2 2l-18 18c-1 2-2 2-2 2l-53-4c-7 0-14 4-18 10-10 17-17 36-23 55-3 7 0 14 6 19l39 35c1 2 1 2 1 3l0 24c0 1 0 3-1 3l-39 35c-6 5-7 12-6 19 5 20 13 38 23 55 4 6 11 10 18 10l53-4c1 0 2 0 2 2l18 18c2 1 2 2 2 2l-4 54c0 7 4 15 10 18 17 10 36 17 55 23 7 3 14 0 19-6l35-39c2-1 2-1 3-1l24 0c1 0 3 0 3 1l35 39c5 5 13 8 19 5z m2-40l-27-30c-7-9-20-14-32-14l-24 0c-12 0-23 5-32 15l-27 30c-8-2-17-6-25-11l2-40c1-12-4-23-12-32l-18-18c-9-8-21-13-32-12l-40 2c-4-8-8-17-11-25l30-27c9-9 15-20 15-32l0-24c0-12-5-23-15-32l-30-27c2-8 6-17 11-25l40 2c12 1 23-4 32-12l18-18c8-9 13-21 12-33l-2-40c8-4 17-8 25-11l27 30c9 9 20 15 32 15l25 0c13 0 24-5 32-15l27-30c8 2 17 6 26 11l-3 40c-1 12 4 23 12 31l19 19c8 8 20 13 31 12l40-3c4 9 8 18 11 26l-30 27c-11 8-16 21-16 33l0 24c0 12 5 23 15 32l30 27c-2 8-6 17-11 25l-40-2c-12-1-23 4-32 12l-18 18c-8 9-13 21-12 32l2 40c-8 4-17 8-25 10z m-71-85c67 0 121-54 121-121 0-67-54-121-121-121-67 0-121 54-121 121 0 67 54 121 121 121z m0-38c-45 0-83-37-83-83 0-46 37-83 83-83 46 0 83 37 83 83 0 46-38 83-83 83z"/>
<glyph glyph-name="instagram" unicode="&#106;" d="M366 501l-220 0c-76 0-135-59-135-135l0-218c0-75 59-135 135-135l218 0c75 0 135 60 135 135l0 218c2 73-60 135-133 135z m89-355c0-52-40-92-91-92l-218 0c-52 0-92 40-92 92l0 220c0 52 40 92 92 92l218 0c51 0 91-40 91-92z m-199 237c-70 0-127-57-127-127 0-70 57-127 127-127 70 0 127 57 127 127 0 70-57 127-127 127z m0-211c-46 0-84 38-84 84 0 46 38 84 84 84 46 0 84-38 84-84 0-46-38-84-84-84z m132 246c-8 0-16-3-22-8-5-6-8-14-8-22 0-8 3-16 8-22 6-5 14-8 22-8 8 0 16 3 22 8 5 6 8 14 8 22 0 8-3 16-8 22-6 5-14 8-22 8z"/>
<glyph glyph-name="left" unicode="&#107;" d="M388 444c13 13 13 34 0 47-13 12-34 12-47 0l-213-214c-13-12-13-34 0-47l213-213c13-13 34-13 47 0 13 13 13 34 0 47l-187 188z"/>
<glyph glyph-name="mas" unicode="&#108;" d="M251 13c138 0 251 112 251 251 0 138-115 248-251 248-136 0-251-113-251-251 0-138 113-248 251-248z m0 38c-118 0-210 95-210 210 0 115 95 210 210 210 115 0 210-92 210-210 0-118-95-210-210-210z m0 359c10 0 20-8 20-21l0-107 108 0c10 0 18-8 18-16l0-2c0-11-8-21-21-21l-107 0 0-107c0-11-8-18-16-18l-2 0c-10 0-21 7-21 20l0 108-107 0c-10-3-18 5-21 13l0 2c0 13 8 21 21 21l107 0 0 107c0 10 8 18 16 21z"/>
<glyph glyph-name="menu-icon" unicode="&#109;" d="M476 138l-438 0c-18 0-30 16-30 34 0 17 15 30 30 30l438 0c16 0 31-13 31-30 0-18-15-34-31-34z m0 172l-212 0c-18 0-31 15-31 30 0 16 10 34 28 34l215 0c16 0 31-16 31-31 0-15-15-33-31-33z"/>
<glyph glyph-name="publicidad" unicode="&#110;" d="M511 29l-43 128c-1 2-3 5-6 8l-218 218 18 18c9 9 9 23 0 32-9 9-24 9-32 0l-18-18-72 72c-32 32-83 32-115 2-2-2-2-2-2-2-1-1-1-1-1-1-31-33-29-84 3-117l70-71-17-17c-9-9-9-24 0-32 8-9 23-9 32 0l17 17 218-216c3-3 6-5 9-6l127-44c18-6 35 12 30 29z m-454 373c-15 15-15 38 0 53 15 15 38 15 53 0l70-70-53-53z m316-317l-214 213 53 53 214-213 26-79z"/>
<glyph glyph-name="right" unicode="&#111;" d="M127 65c-13-12-13-32 0-45 12-12 32-12 45 0l213 213c13 13 13 33 0 46l-213 213c-13 12-33 12-45 0-13-13-13-33 0-45l190-191z"/>
<glyph glyph-name="scroll" unicode="&#112;" d="M254 375c-12 0-23-10-23-23l0-57c0-12 11-23 23-23 12 0 22 11 22 23l0 57c-2 13-10 23-22 23m137-47l0-144c0-78-61-141-139-141-78 0-137 63-137 141l0 144c0 78 61 141 139 141 78 0 137-63 137-141m-137 184c-100 0-182-82-182-184l0-144c0-102 82-184 182-184 100 0 182 82 182 184l0 144c-2 102-82 184-182 184"/>
<glyph glyph-name="sitio" unicode="&#113;" d="M371 377l-127 0c-11 0-20-9-20-20 0-11 9-19 20-19l127 0c11 0 19 8 19 19-1 11-10 20-19 20z m62 126c39 0 69-31 69-69l0-254c0-39-31-69-69-69l-31-1 0-36c0-35-28-64-63-65l-234 0c-53 0-95 42-95 95l0 231c0 37 29 66 66 66l34 0 0 32c0 39 31 69 69 69l254 0z m-323-139l-36 0c-15 0-28-12-28-28l0-231c0-32 26-57 58-57l231 0c16 0 28 12 28 28l0 35-185 0c-39 0-70 32-70 69l0 184z m323 102l-253 0c-17 0-31-15-31-32l0-254c0-17 14-31 31-31l254 0c17 0 32 14 32 31l0 254c0 17-15 32-33 32z m-62-190c11 0 19-9 19-20 0-11-8-20-19-20l-127 0c-11 0-20 9-20 20 0 11 9 20 20 20z"/>
<glyph glyph-name="telephone" unicode="&#114;" d="M489 114c0 14-7 26-19 35l-63 49c-16 14-42 14-58 0l-12-12c-11-9-25-7-37 3l-111 111c-10 10-10 26-3 37l12 14c14 17 14 42 0 59l-49 60c-16 21-47 23-65 9-3-2-3-2-5-4l-39-40c-17-16-59-86 125-270 117-116 189-142 226-142 23 0 37 10 44 17l40 39c9 9 14 23 14 35z m-26-19c0 0-2-2-2-2l-40-39c-4-5-14-10-30-10-28 0-95 19-212 135-137 135-153 214-125 242l39 40c5 4 12 9 19 9 0 0 2 0 2 0 7 0 16-5 21-12l47-62c7-10 7-24 0-35l-10-12c-16-19-14-46 3-63l111-111c17-17 44-19 63-5l14 12c9 7 23 7 35 0l63-49c9-10 11-26 2-38z"/>
<glyph glyph-name="twitter" unicode="&#115;" d="M492 417c-17-7-36-12-58-17 22 12 37 32 44 56-20-12-42-20-64-24-19 19-43 31-73 31-56 0-100-46-100-100 0-7 0-14 3-22-83 5-159 44-207 105-10-14-15-32-15-51 0-34 17-66 44-83-17 0-32 5-46 12 0-48 34-90 80-100-7-5-17-5-27-5-7 0-12 0-19 3 12-39 51-68 95-71-34-27-78-44-125-44-7 0-17 0-24 3 44-30 98-47 154-47 185 0 287 154 287 288 0 5 0 10 0 12 20 15 37 32 51 54z"/>
<glyph glyph-name="up" unicode="&#116;" d="M444 124c13-13 34-13 47 0 12 13 12 34 0 47l-214 213c-12 13-34 13-47 0l-213-213c-13-13-13-34 0-47 13-13 34-13 47 0l188 187z"/>
<glyph glyph-name="buscar" unicode="&#117;" d="M311 512c111 0 201-90 201-201 0-110-90-200-201-200-48 0-92 17-126 45l-150-150c-8-8-21-8-29 0-8 8-8 21 0 29l150 150c-30 36-45 80-45 126 0 111 90 201 200 201z m0-42c-88 0-159-71-159-159 0-88 71-159 159-159 88 0 159 71 159 159 0 88-71 159-159 159z"/>
<glyph glyph-name="ecommerce" unicode="&#118;" d="M405 150c-35 0-63-29-63-65 0-35 28-64 63-64 36 0 64 29 64 64 0 36-28 65-64 65z m0-90c-14 0-25 11-25 25 0 15 11 26 25 26 15 0 26-11 26-26 0-14-11-25-26-25z m103 338c-4 5-9 8-15 8l-375 0-17 73c-2 8-10 14-19 14l-63 0c-10 0-19-8-19-19 0-11 9-19 19-19l48 0 62-263c3-8 10-15 19-15l298 0c9 0 17 7 19 15l46 190c2 6 1 12-3 17z m-77-182l-268 0-36 151 341 0z m-257-66c-36 0-64-29-64-65 0-35 28-64 64-64 35 0 64 29 64 64 0 36-29 65-64 65z m0-90c-14 0-26 11-26 25 0 15 12 26 26 26 14 0 25-11 25-26 0-14-11-25-25-25z"/>
</font>
</defs>
</svg>
