<svg xmlns="http://www.w3.org/2000/svg" xmlns:xlink="http://www.w3.org/1999/xlink" width="537" height="187" viewBox="0 0 537 187">
    <defs>
        <path id="prefix__a" d="M0.264 1.399L103.393 1.399 103.393 99.718 0.264 99.718z"/>
        <path id="prefix__c" d="M1.184 0.619L10.074 0.619 10.074 9.5 1.184 9.5z"/>
    </defs>
    <g fill="none" fill-rule="evenodd">
        <path fill="#F9AE42" d="M0 186.724L139.903 186.724 139.903 46.821 0 46.821z"/>
        <path fill="#4169B1" d="M46.821 139.903L186.724 139.903 186.724 0 46.821 0z"/>
        <path fill="#EB1E69" d="M46.821 139.903L139.903 139.903 139.903 46.821 46.821 46.821z"/>
        <g>
            <path fill="#454647" d="M9.345 145.908h7.14v11.982c-2.022.864-4.173 1.295-6.453 1.295-2.718 0-4.806-1.033-6.272-3.1-1.464-2.065-2.196-5.043-2.196-8.93 0-3.75.838-6.684 2.516-8.803 1.678-2.12 4.023-3.18 7.038-3.18 1.863 0 3.643.479 5.335 1.437l-1.374 3.547c-1.32-.766-2.555-1.15-3.705-1.15-1.651 0-2.96.738-3.923 2.213-.964 1.474-1.446 3.485-1.446 6.032 0 2.62.349 4.627 1.047 6.022.697 1.395 1.712 2.094 3.043 2.094.703 0 1.417-.092 2.141-.272v-5.353H9.345v-3.834zM36.859 147.154c0 2.663.336 4.692 1.006 6.089.672 1.393 1.657 2.09 2.957 2.09 2.62 0 3.929-2.726 3.929-8.179 0-5.452-1.299-8.18-3.897-8.18-1.321 0-2.317.696-2.99 2.084-.669 1.39-1.005 3.422-1.005 6.096m12.35 0c0 3.867-.724 6.838-2.172 8.916-1.45 2.077-3.52 3.115-6.215 3.115-2.706 0-4.784-1.037-6.232-3.107-1.448-2.073-2.172-5.057-2.172-8.956 0-3.866.724-6.83 2.172-8.89 1.448-2.062 3.537-3.092 6.264-3.092 2.695 0 4.76 1.035 6.2 3.107 1.436 2.07 2.155 5.041 2.155 8.907M69.423 147.154c0 2.663.336 4.692 1.006 6.089.672 1.393 1.657 2.09 2.957 2.09 2.62 0 3.929-2.726 3.929-8.179 0-5.452-1.298-8.18-3.899-8.18-1.32 0-2.315.696-2.987 2.084-.67 1.39-1.006 3.422-1.006 6.096m12.35 0c0 3.867-.724 6.838-2.173 8.916-1.448 2.077-3.52 3.115-6.214 3.115-2.706 0-4.784-1.037-6.232-3.107-1.448-2.073-2.173-5.057-2.173-8.956 0-3.866.725-6.83 2.173-8.89 1.448-2.062 3.537-3.092 6.262-3.092 2.695 0 4.763 1.035 6.2 3.107 1.438 2.07 2.157 5.041 2.157 8.907M108.664 147.09c0-5.219-1.437-7.828-4.314-7.828h-1.74v15.801h1.406c1.586 0 2.76-.664 3.515-1.99.757-1.324 1.133-3.32 1.133-5.982m4.458-.129c0 3.857-.785 6.804-2.355 8.844-1.572 2.04-3.833 3.059-6.783 3.059h-5.719v-23.359h6.246c2.716 0 4.83 1.004 6.343 3.012 1.512 2.008 2.268 4.822 2.268 8.444M155.1 158.865L150.786 158.865 150.786 135.506 161.251 135.506 161.251 139.261 155.1 139.261 155.1 145.747 160.836 145.747 160.836 149.502 155.1 149.502zM180.984 147.154c0 2.663.336 4.692 1.007 6.089.671 1.393 1.656 2.09 2.956 2.09 2.619 0 3.93-2.726 3.93-8.179 0-5.452-1.3-8.18-3.898-8.18-1.321 0-2.317.696-2.988 2.084-.67 1.39-1.007 3.422-1.007 6.096m12.35 0c0 3.867-.724 6.838-2.172 8.916-1.448 2.077-3.52 3.115-6.215 3.115-2.707 0-4.782-1.037-6.232-3.107-1.448-2.073-2.172-5.057-2.172-8.956 0-3.866.724-6.83 2.172-8.89 1.45-2.062 3.537-3.092 6.264-3.092 2.695 0 4.76 1.035 6.2 3.107 1.436 2.07 2.155 5.041 2.155 8.907M214.17 146.036h1.119c1.023 0 1.759-.292 2.204-.87.45-.582.673-1.446.673-2.596 0-1.194-.238-2.043-.711-2.55-.475-.505-1.207-.758-2.198-.758h-1.086v6.774zm0 3.739v9.09h-4.343v-23.358h5.686c2.408 0 4.183.57 5.328 1.71 1.144 1.14 1.717 2.882 1.717 5.224 0 2.95-.996 5.01-2.988 6.184l4.49 10.24h-4.647l-3.693-9.09h-1.55zM269.344 149.12l-1.245-5.433c-.074-.33-.243-1.158-.504-2.484-.262-1.326-.418-2.214-.471-2.66-.138.916-.315 1.927-.528 3.027-.212 1.104-.767 3.62-1.662 7.55h4.41zm2.158 9.745l-1.344-5.894h-6.085l-1.342 5.894h-4.347l5.784-23.454h5.895l5.8 23.454h-4.361zM291.013 158.865L291.013 135.506 295.359 135.506 295.359 155.063 301.381 155.063 301.381 158.865zM317.249 158.865L317.249 135.506 321.595 135.506 321.595 155.063 327.617 155.063 327.617 158.865z" transform="translate(207.555 16.175)"/>
            <path fill="#989898" d="M.535 35.497V72.39c0 16.843 13.85 30.546 30.872 30.546h67.778V50.904H56.209v5.747H93.6v40.535H31.407c-13.705 0-25.283-11.355-25.283-24.796V35.33c0-13.765 11.343-24.963 25.283-24.963h67.778v-5.75H31.407C14.095 4.618.535 18.182.535 35.498M190.285 4.618h-5.75V76.27h-64.122L143.8 4.618h-5.514l-21.18 63.08c-.722 2.178-1.09 4.369-1.09 6.504 0 6.487 3.126 7.816 7.819 7.816h60.7v20.918h5.75V82.018h20.918V76.27h-20.918V4.618z" transform="translate(207.555 16.175)"/>
            <g transform="translate(207.555 16.175) translate(225.254 3.218)">
                <mask id="prefix__b" fill="#fff">
                    <use xlink:href="#prefix__a"/>
                </mask>
                <path fill="#989898" d="M18.66 68.937l21.266-52.962c1.273-3.176 3.405-8.494 9.266-8.494h5.268c5.887 0 8.01 5.328 9.277 8.51l21.258 52.946H18.66zm50.422-55.92L69 12.835C66.048 6.355 63.222 1.4 56.114 1.4h-8.57c-7.114 0-9.936 4.96-12.885 11.442l-.073.157c-.331.932-.893 2.345-1.914 4.91-3.056 7.661-11.099 27.83-32.408 81.81h6.433l10.05-25.53h70.166l10.05 25.53h6.43C82.565 46.958 74.302 26.219 71.161 18.34c-1.155-2.898-1.731-4.349-2.079-5.322z" mask="url(#prefix__b)"/>
            </g>
            <g transform="translate(207.555 16.175) translate(318.573)">
                <mask id="prefix__d" fill="#fff">
                    <use xlink:href="#prefix__c"/>
                </mask>
                <path fill="#231F20" d="M4.784 5.063h.662c.358 0 .64-.092.845-.275.205-.184.307-.45.307-.8 0-.677-.387-1.017-1.164-1.017h-.65v2.092zm2.43-1.106c0 .313-.077.586-.23.826-.15.238-.368.423-.653.558l1.402 2.322h-.715L5.776 5.536h-.992v2.127h-.597v-5.2h1.247c.563 0 1 .122 1.313.367.31.244.466.62.466 1.127zm-5.48 1.106c0 .701.174 1.35.524 1.947.349.596.822 1.07 1.42 1.422.6.35 1.25.524 1.95.524.702 0 1.352-.173 1.949-.52.595-.35 1.07-.825 1.42-1.423.351-.599.527-1.249.527-1.95 0-.686-.17-1.326-.506-1.921-.338-.594-.807-1.074-1.412-1.436-.605-.363-1.263-.543-1.978-.543-.692 0-1.34.173-1.94.523-.602.349-1.077.827-1.427 1.433-.351.607-.526 1.255-.526 1.944zm-.55 0c0-.789.198-1.527.592-2.216.393-.69.935-1.234 1.625-1.631.69-.398 1.432-.597 2.227-.597.789 0 1.527.196 2.217.59.69.394 1.233.937 1.632 1.625.397.69.597 1.432.597 2.229 0 .775-.192 1.506-.575 2.186-.38.683-.917 1.228-1.607 1.637-.689.41-1.443.614-2.264.614-.814 0-1.567-.202-2.255-.611-.69-.407-1.228-.953-1.611-1.633-.385-.682-.578-1.413-.578-2.193z" mask="url(#prefix__d)"/>
            </g>
        </g>
    </g>
</svg>
