<?xml version="1.0" encoding="utf-8"?>
<!-- Generator: Adobe Illustrator 24.0.3, SVG Export Plug-In . SVG Version: 6.00 Build 0)  -->
<svg version="1.1" id="Capa_1" xmlns="http://www.w3.org/2000/svg" xmlns:xlink="http://www.w3.org/1999/xlink" x="0px" y="0px"
	 viewBox="0 0 293 366.9" style="enable-background:new 0 0 293 366.9;" xml:space="preserve">
<style type="text/css">
	.st0{opacity:5.000000e-02;enable-background:new    ;}
	.st1{fill:#EC1968;}
</style>
<g class="st0">
	<path class="st1" d="M151.4,161.6H293v185.1c-22.9,7.5-44.6,12.7-64.8,15.7s-41,4.5-62.1,4.5c-53.9,0-95-15.8-123.4-47.5
		C14.2,287.8,0,242.4,0,183.1C0,125.5,16.5,80.6,49.4,48.3S128.1,0,186.5,0c36.6,0,71.9,7.3,106,22l-25.1,60.5
		c-26-13-53.1-19.5-81.3-19.5c-32.7,0-58.9,11-78.6,33S78,147.5,78,184.6c0,38.7,7.9,68.3,23.8,88.7s38.9,30.6,69.2,30.6
		c15.8,0,31.8-1.6,48.1-4.9v-74.5h-67.6L151.4,161.6L151.4,161.6z"/>
</g>
</svg>
