<svg xmlns="http://www.w3.org/2000/svg" xmlns:xlink="http://www.w3.org/1999/xlink" width="86" height="30" viewBox="0 0 86 30">
    <defs>
        <path id="prefix__a" d="M0.042 0.223L16.477 0.223 16.477 15.891 0.042 15.891z"/>
        <path id="prefix__c" d="M0.189 0.099L1.605 0.099 1.605 1.514 0.189 1.514z"/>
    </defs>
    <g fill="none" fill-rule="evenodd">
        <path fill="#F9AE42" d="M0 29.757L22.296 29.757 22.296 7.462 0 7.462z"/>
        <path fill="#4169B1" d="M7.462 22.296L29.757 22.296 29.757 0 7.462 0z"/>
        <path fill="#EB1E69" d="M7.462 22.296L22.296 22.296 22.296 7.462 7.462 7.462z"/>
        <g>
            <path fill="#454647" d="M1.49 23.252h1.137v1.91c-.322.138-.665.206-1.028.206-.433 0-.766-.164-1-.493-.233-.33-.35-.804-.35-1.424 0-.597.134-1.065.401-1.403.268-.338.641-.507 1.122-.507.297 0 .58.077.85.23l-.219.565c-.21-.122-.407-.184-.59-.184-.264 0-.472.118-.626.353-.153.235-.23.556-.23.962 0 .417.056.737.167.96.11.222.273.333.485.333.112 0 .226-.015.341-.043v-.853h-.46v-.612zM5.874 23.451c0 .425.054.748.16.97.107.222.264.334.472.334.417 0 .626-.435.626-1.304s-.207-1.303-.621-1.303c-.21 0-.37.11-.477.332-.106.221-.16.545-.16.971m1.968 0c0 .616-.115 1.09-.346 1.42-.231.332-.561.497-.99.497-.432 0-.763-.165-.994-.495-.23-.33-.346-.806-.346-1.427 0-.616.116-1.088.346-1.417.231-.328.564-.492.999-.492.43 0 .758.164.988.495.229.33.343.803.343 1.42M11.064 23.451c0 .425.053.748.16.97.107.222.264.334.471.334.418 0 .626-.435.626-1.304s-.207-1.303-.621-1.303c-.21 0-.369.11-.476.332-.107.221-.16.545-.16.971m1.968 0c0 .616-.116 1.09-.347 1.42-.23.332-.56.497-.99.497-.431 0-.762-.165-.993-.495-.23-.33-.346-.806-.346-1.427 0-.616.115-1.088.346-1.417.23-.328.564-.492.998-.492.43 0 .759.164.988.495.23.33.344.803.344 1.42M17.317 23.441c0-.832-.229-1.248-.687-1.248h-.278v2.519h.224c.253 0 .44-.106.56-.318.121-.21.181-.529.181-.953m.71-.02c0 .614-.124 1.084-.375 1.409-.25.325-.61.487-1.08.487h-.912v-3.722h.995c.433 0 .77.16 1.011.48.241.32.362.768.362 1.346M24.717 25.317L24.03 25.317 24.03 21.595 25.698 21.595 25.698 22.193 24.717 22.193 24.717 23.227 25.632 23.227 25.632 23.825 24.717 23.825zM28.842 23.451c0 .425.054.748.16.97.108.222.265.334.472.334.417 0 .626-.435.626-1.304s-.207-1.303-.62-1.303c-.211 0-.37.11-.477.332-.107.221-.16.545-.16.971m1.968 0c0 .616-.116 1.09-.347 1.42-.23.332-.56.497-.99.497-.431 0-.762-.165-.993-.495-.23-.33-.346-.806-.346-1.427 0-.616.115-1.088.346-1.417.23-.328.563-.492.998-.492.43 0 .759.164.988.495.229.33.344.803.344 1.42M34.131 23.273h.178c.163 0 .28-.047.352-.139.071-.092.107-.23.107-.413 0-.19-.038-.326-.113-.407-.076-.08-.193-.12-.35-.12h-.174v1.079zm0 .596v1.449h-.692v-3.723h.906c.384 0 .667.09.85.273.182.181.273.459.273.832 0 .47-.159.799-.476.985l.715 1.633h-.74l-.589-1.45h-.247zM42.924 23.764l-.199-.865-.08-.396c-.042-.212-.066-.353-.075-.424-.022.146-.05.307-.084.482-.034.176-.122.577-.265 1.203h.703zm.344 1.553l-.214-.939h-.97l-.214.94h-.693l.922-3.738h.94l.924 3.737h-.695zM46.377 25.317L46.377 21.595 47.07 21.595 47.07 24.712 48.029 24.712 48.029 25.317zM50.558 25.317L50.558 21.595 51.251 21.595 51.251 24.712 52.211 24.712 52.211 25.317z" transform="translate(33.077 2.578)"/>
            <path fill="#989898" d="M.085 5.657v5.88c0 2.684 2.207 4.867 4.92 4.867h10.802V8.112h-6.85v.916h5.96v6.46H5.005c-2.184 0-4.029-1.81-4.029-3.952V5.63c0-2.193 1.808-3.978 4.03-3.978h10.8V.736h-10.8c-2.76 0-4.92 2.161-4.92 4.92M30.325.736h-.917v11.419H19.19L22.917.735h-.88L18.664 10.79c-.116.347-.174.696-.174 1.036 0 1.034.498 1.246 1.246 1.246h9.673v3.333h.917v-3.333h3.333v-.916h-3.333V.735z" transform="translate(33.077 2.578)"/>
            <g transform="translate(33.077 2.578) translate(35.897 .513)">
                <mask id="prefix__b" fill="#fff">
                    <use xlink:href="#prefix__a"/>
                </mask>
                <path fill="#989898" d="M2.974 10.986l3.389-8.44c.203-.506.542-1.354 1.477-1.354h.839c.938 0 1.276.85 1.478 1.356l3.388 8.438H2.974zm8.035-8.911l-.013-.03c-.47-1.032-.92-1.822-2.053-1.822H7.577c-1.134 0-1.584.79-2.054 1.823l-.011.025c-.053.149-.142.374-.305.783C4.72 4.074 3.438 7.289.042 15.89h1.025l1.602-4.068H13.85l1.602 4.068h1.024c-3.319-8.407-4.636-11.713-5.136-12.968-.185-.462-.276-.693-.332-.848z" mask="url(#prefix__b)"/>
            </g>
            <g transform="translate(33.077 2.578) translate(50.77)">
                <mask id="prefix__d" fill="#fff">
                    <use xlink:href="#prefix__c"/>
                </mask>
                <path fill="#231F20" d="M.762.807h.106c.057 0 .102-.015.135-.044.032-.03.049-.072.049-.127C1.052.528.99.473.866.473H.762v.334zM1.15.63c0 .05-.013.093-.037.131C1.09.8 1.054.83 1.01.852l.223.37h-.114L.921.881H.762v.34H.667v-.83h.199c.09 0 .16.02.21.059.049.039.074.099.074.18zM.276.807c0 .112.028.215.084.31.055.095.13.17.226.227.096.056.2.083.31.083.113 0 .216-.027.311-.083.095-.055.171-.131.227-.226.056-.096.084-.2.084-.311 0-.11-.027-.211-.08-.306-.055-.095-.13-.171-.226-.23C1.116.215 1.011.186.897.186c-.11 0-.214.028-.31.084C.493.324.418.4.36.497c-.056.097-.084.2-.084.31zm-.087 0C.189.68.22.563.283.454c.063-.11.15-.197.26-.26C.651.13.77.099.896.099c.126 0 .243.03.353.094.11.063.197.149.26.259.064.11.095.228.095.355 0 .123-.03.24-.091.348-.06.109-.146.196-.256.261-.11.065-.23.098-.361.098-.13 0-.25-.032-.36-.097-.11-.065-.195-.152-.256-.26C.22 1.046.189.93.189.806z" mask="url(#prefix__d)"/>
            </g>
        </g>
    </g>
</svg>
