<svg xmlns="http://www.w3.org/2000/svg" width="86" height="30" viewBox="0 0 86 30">
    <g fill="#FEFEFE" fill-rule="evenodd">
        <path d="M0 7.452L0 29.717 22.266 29.717 22.266 22.735 6.982 22.735 6.982 7.452zM7.451 0L7.451 6.983 22.734 6.983 22.734 22.266 29.717 22.266 29.717 0z"/>
        <path d="M7.92 21.797L21.797 21.797 21.797 7.92 7.92 7.92z"/>
        <g>
            <path d="M.306 5.694v5.871c0 2.68 2.204 4.861 4.913 4.861h10.787v-8.28h-6.84v.915h5.951v6.451H5.22c-2.182 0-4.025-1.807-4.025-3.947V5.667c0-2.19 1.806-3.974 4.025-3.974h10.787V.78H5.219C2.464.78.306 2.94.306 5.694M30.504.78h-.915v11.403H19.385L23.105.779h-.877l-3.371 10.04c-.115.346-.173.695-.173 1.035 0 1.032.497 1.244 1.244 1.244h9.66v3.328h.915v-3.328h3.33v-.915h-3.33V.779zM39.04 11.527L42.424 3.1c.203-.505.542-1.353 1.475-1.353h.838c.937 0 1.275.849 1.476 1.355l3.384 8.426H39.04zm8.025-8.898l-.013-.03C46.58 1.568 46.13.78 45 .78h-1.364c-1.132 0-1.58.79-2.05 1.822l-.011.024c-.054.148-.143.373-.306.782-.487 1.219-1.766 4.429-5.157 13.02h1.024l1.599-4.063h11.167l1.6 4.063h1.023c-3.314-8.396-4.63-11.698-5.13-12.952-.183-.461-.276-.692-.33-.846zM1.707 23.265h1.137v1.907c-.322.138-.664.206-1.027.206-.433 0-.765-.164-.998-.492-.233-.33-.35-.803-.35-1.422 0-.597.133-1.064.4-1.4.268-.339.64-.507 1.121-.507.296 0 .58.076.849.229l-.219.564c-.21-.122-.407-.182-.59-.182-.263 0-.47.117-.624.351-.153.235-.23.555-.23.961 0 .416.055.736.167.958.11.221.271.333.484.333.112 0 .225-.014.34-.043v-.852h-.46v-.61zM6.086 23.464c0 .424.055.747.16.968.107.224.264.334.471.334.417 0 .625-.434.625-1.302 0-.868-.207-1.302-.62-1.302-.21 0-.369.11-.476.332-.105.221-.16.544-.16.97m1.966 0c0 .615-.115 1.088-.346 1.42-.23.33-.56.494-.989.494-.43 0-.761-.165-.992-.494-.23-.33-.346-.805-.346-1.425 0-.616.116-1.087.346-1.415.23-.327.564-.492.998-.492.428 0 .756.165.985.495.23.33.344.802.344 1.417M11.269 23.464c0 .424.053.747.16.968.107.224.264.334.471.334.416 0 .625-.434.625-1.302 0-.868-.207-1.302-.62-1.302-.21 0-.369.11-.476.332-.107.221-.16.544-.16.97m1.966 0c0 .615-.115 1.088-.346 1.42-.232.33-.56.494-.989.494-.431 0-.762-.165-.992-.494-.23-.33-.346-.805-.346-1.425 0-.616.115-1.087.346-1.415.23-.327.563-.492.997-.492.429 0 .757.165.986.495.23.33.344.802.344 1.417M17.515 23.454c0-.83-.229-1.246-.687-1.246h-.277v2.515h.224c.251 0 .439-.106.56-.316.12-.211.18-.53.18-.953m.71-.02c0 .613-.126 1.082-.377 1.407-.249.325-.609.487-1.079.487h-.91V21.61h.995c.432 0 .768.16 1.009.48.24.32.361.767.361 1.344M24.905 25.328L24.219 25.328 24.219 21.61 25.884 21.61 25.884 22.208 24.905 22.208 24.905 23.24 25.818 23.24 25.818 23.837 24.905 23.837zM29.024 23.464c0 .424.054.747.16.968.107.224.264.334.47.334.418 0 .626-.434.626-1.302 0-.868-.207-1.302-.62-1.302-.21 0-.369.11-.476.332-.106.221-.16.544-.16.97m1.966 0c0 .615-.116 1.088-.345 1.42-.232.33-.56.494-.99.494-.43 0-.762-.165-.992-.494-.23-.33-.346-.805-.346-1.425 0-.616.115-1.087.346-1.415.23-.327.563-.492.997-.492.429 0 .757.165.987.495.228.33.343.802.343 1.417M34.306 23.286h.178c.163 0 .28-.046.35-.138.072-.093.108-.23.108-.414 0-.19-.037-.325-.113-.405-.075-.08-.192-.12-.35-.12h-.173v1.077zm0 .595v1.447h-.691V21.61h.905c.383 0 .665.091.848.272.182.182.273.459.273.833 0 .47-.159.796-.476.983l.715 1.63h-.74l-.587-1.447h-.247zM43.087 23.777l-.199-.865c-.012-.053-.038-.184-.08-.395-.041-.21-.066-.352-.074-.424-.022.146-.05.307-.085.482-.033.176-.121.576-.264 1.202h.702zm.343 1.55l-.213-.938h-.97l-.213.939h-.691l.92-3.732h.939l.922 3.732h-.694zM46.535 25.328L46.535 21.61 47.227 21.61 47.227 24.722 48.186 24.722 48.186 25.328zM50.711 25.328L50.711 21.61 51.403 21.61 51.403 24.722 52.362 24.722 52.362 25.328zM51.683.85h.105c.057 0 .102-.014.135-.044.033-.029.049-.07.049-.127 0-.108-.062-.161-.186-.161h-.103V.85zm.386-.175c0 .049-.012.092-.035.13-.025.038-.06.068-.104.09l.223.369h-.115l-.196-.339h-.159v.339h-.095V.437h.198c.09 0 .16.019.21.057.049.04.073.1.073.181zm-.871.175c0 .112.028.215.083.31.055.096.131.17.227.226.095.056.198.084.31.084.112 0 .215-.028.31-.083.094-.056.17-.13.225-.226.056-.096.085-.199.085-.31 0-.11-.027-.212-.08-.306-.055-.096-.13-.172-.226-.229-.096-.058-.2-.086-.314-.086-.111 0-.214.027-.31.083-.095.055-.17.13-.227.228-.055.096-.083.2-.083.31zm-.088 0c0-.125.032-.243.094-.353.064-.109.15-.196.26-.259.109-.063.228-.095.354-.095.125 0 .242.03.353.094.11.062.196.149.26.258.062.11.093.228.093.356 0 .123-.03.239-.09.347-.062.108-.146.195-.257.26-.11.066-.23.098-.359.098-.13 0-.25-.031-.36-.097-.109-.065-.195-.152-.256-.26-.06-.109-.092-.225-.092-.349z" transform="translate(32.813 2.53)"/>
        </g>
    </g>
</svg>
