<svg xmlns="http://www.w3.org/2000/svg" xmlns:xlink="http://www.w3.org/1999/xlink" width="138" height="15" viewBox="0 0 138 15">
    <defs>
        <path id="prefix__a" d="M0.056 0.066L12.412 0.066 12.412 14.659 0.056 14.659z"/>
        <path id="prefix__c" d="M0 14.659L137.221 14.659 137.221 0.066 0 0.066z"/>
    </defs>
    <g fill="none" fill-rule="evenodd">
        <path fill="#454647" d="M12.038.341L7.223 11.991 2.763.341 0 .341 5.96 14.905 8.644 14.905 14.564.341zM16.301 14.905L18.669 14.905 18.669.341 16.301.341z"/>
        <g transform="translate(0 .275)">
            <g transform="translate(21.136)">
                <mask id="prefix__b" fill="#fff">
                    <use xlink:href="#prefix__a"/>
                </mask>
                <path fill="#454647" d="M.056.066V14.63h2.45V2.13h3.266s3.562.541 3.562 3.66c0 3.117-4.053 4.052-4.053 4.052l3.856 4.817h3.275L8.94 10.525s2.394-1.302 2.394-4.617c0-3.316-2.686-5.368-4.494-5.684L.056.066z" mask="url(#prefix__b)"/>
            </g>
            <mask id="prefix__d" fill="#fff">
                <use xlink:href="#prefix__c"/>
            </mask>
            <path fill="#454647" d="M34.793 14.63L37.14 14.63 37.14.066 34.793.066zM45.275.066L37.317 7.17 45.508 14.63 46.82 12.885 40.732 7.348 46.762 1.645zM48.305.066L48.305 14.63 59.52 14.63 59.52 12.386 50.344 12.386 50.344 8.315 59.52 8.315 59.52 5.947 50.362 6.026 50.362 2.145 59.52 2.145 59.52.066zM61.256.066L61.256 2.131 66.009 2.131 66.009 14.63 68.439 14.63 68.439 2.131 72.949 2.131 72.949.066zM82.807 7.308h3.709v6.6c-.719.14-3.071.498-4.387.498-4.107 0-5.224-2.672-5.224-7.098 0-4.347.977-7.218 5.224-7.218 2.093 0 4.387.499 4.387.499l-.06.697S83.942.768 82.128.768c-3.749 0-4.467 2.572-4.467 6.54 0 3.988.798 6.42 4.467 6.42 1.116 0 2.791-.239 3.668-.398V7.986h-2.99v-.678zM94.79.947h-4.286v6.82h4.286c2.533 0 3.39-1.436 3.39-3.51 0-2.313-1.057-3.31-3.39-3.31zm-4.286 7.497v5.783h-.719V.27h5.005c2.772 0 4.147 1.196 4.147 3.987 0 2.153-.817 3.689-2.89 4.088l3.15 5.882h-.818l-3.11-5.783h-4.765zM111.4 7.308c0-4.127-.838-6.54-4.587-6.54-3.788 0-4.586 2.373-4.586 6.54 0 4.187.738 6.42 4.586 6.42 3.849 0 4.587-2.034 4.587-6.42m-9.93 0c0-4.546 1.076-7.218 5.343-7.218 4.268 0 5.344 2.632 5.344 7.218 0 4.825-1.057 7.098-5.344 7.098-4.306 0-5.343-2.473-5.343-7.098M119.715 13.728c2.511 0 3.987-.877 3.987-3.41V.27h.718v10.049c0 2.99-1.715 4.087-4.705 4.087-2.792 0-4.507-1.076-4.507-4.088V.27h.718v10.049c0 2.512 1.455 3.409 3.789 3.409M133.094 8.424c2.412 0 3.37-1.455 3.37-3.868 0-2.412-.958-3.609-3.37-3.609h-4.367v7.477h4.367zm-4.367.678v5.125h-.718V.27h5.085c2.89 0 4.127 1.395 4.127 4.286 0 2.891-1.236 4.546-4.127 4.546h-4.367z" mask="url(#prefix__d)"/>
        </g>
    </g>
</svg>
